<?xml version="1.0" encoding="UTF-8"?>
<svg version="1.1" xmlns="http://www.w3.org/2000/svg" width="2000" height="2000">
<path d="M0 0 C660 0 1320 0 2000 0 C2000 660 2000 1320 2000 2000 C1340 2000 680 2000 0 2000 C0 1340 0 680 0 0 Z " fill="#0A91F9" transform="translate(0,0)"/>
<path d="M0 0 C40.76501888 -0.06888033 81.53003009 -0.12163696 122.29509569 -0.15319599 C127.12332561 -0.15694747 131.95155541 -0.1608305 136.77978516 -0.16479492 C137.74087503 -0.16558185 138.7019649 -0.16636878 139.69217871 -0.16717956 C155.1915932 -0.18018299 170.69097382 -0.20380847 186.19036831 -0.23145839 C202.13046598 -0.25965432 218.0705461 -0.27620601 234.01066768 -0.28226548 C243.8222965 -0.28635274 253.63382955 -0.29919342 263.44542883 -0.3237494 C270.20161986 -0.33978243 276.95776242 -0.34436135 283.71397103 -0.34050413 C287.5941135 -0.33860942 291.47409037 -0.34121278 295.35420227 -0.35761642 C320.79632451 -0.45977981 345.93141184 1.0773145 371 5.6875 C371.69303223 5.81349579 372.38606445 5.93949158 373.10009766 6.06930542 C420.96325197 14.83357899 468.06419336 32.87227008 508 61 C509.07894531 61.74378906 510.15789063 62.48757813 511.26953125 63.25390625 C536.57209547 80.84883189 561.22905249 102.51925857 580 127 C580.93140092 128.1460783 581.86658417 129.28908885 582.8046875 130.4296875 C590.06442652 139.28687271 596.67049258 148.46010436 603 158 C603.44698242 158.66725098 603.89396484 159.33450195 604.35449219 160.02197266 C623.41699105 188.53337754 638.65931698 219.03260252 651 251 C651.50370117 252.27979736 651.50370117 252.27979736 652.01757812 253.58544922 C659.972027 273.81615347 665.7841083 294.91391221 671 316 C671.19658203 316.77891602 671.39316406 317.55783203 671.59570312 318.36035156 C676.02022964 336.05134424 678.89057931 354.02988051 681.69403076 372.03509521 C681.96327182 373.76413518 682.2355469 375.49270211 682.50830078 377.22119141 C683.52609977 383.79729738 684.31551518 390.38134646 685 397 C685.13535156 398.2571582 685.27070312 399.51431641 685.41015625 400.80957031 C687.76338444 423.21635183 688.29451347 445.60934105 688.31052017 468.12195587 C688.31246411 470.21142143 688.3175671 472.30086103 688.3230896 474.39031982 C688.41892731 523.27079764 682.75674063 572.27725537 670.81298828 619.70703125 C670.06818048 622.72383833 669.37947356 625.74594933 668.71484375 628.78125 C656.32028062 684.00478972 631.37227522 740.23113546 598 786 C597.26910156 787.01191406 596.53820313 788.02382812 595.78515625 789.06640625 C591.54411465 794.82594014 587.10913281 800.42892504 582.625 806 C582.13209473 806.61617187 581.63918945 807.23234375 581.13134766 807.8671875 C572.88226533 818.0199042 563.76420048 827.42258838 554.52050781 836.66479492 C552.99513287 838.19237416 551.47799328 839.72783582 549.9609375 841.26367188 C543.63334666 847.62726635 537.04331744 853.42298849 530 859 C528.79121827 860.00022863 527.58506006 861.00364564 526.3828125 862.01171875 C497.53387953 885.85900616 464.90264782 902.13023978 430 915 C429.26007813 915.27473145 428.52015625 915.54946289 427.7578125 915.83251953 C382.66775713 932.38471077 334.04148398 935.33269523 286.49173582 935.26144934 C281.93925815 935.25685498 277.38679473 935.26394199 272.83432007 935.26940918 C263.96012029 935.27822666 255.08595464 935.27641714 246.21175361 935.2705839 C239.00320582 935.26604351 231.79466751 935.26546468 224.5861187 935.26763153 C223.03988744 935.26809123 223.03988744 935.26809123 221.46241919 935.26856022 C219.36779527 935.26919972 217.27317135 935.26984815 215.17854743 935.2705054 C195.62142915 935.27618451 176.06432973 935.26968556 156.50721454 935.25890467 C139.72509655 935.24994058 122.94300618 935.25154929 106.16088867 935.26074219 C86.63196418 935.27143482 67.10305606 935.27566764 47.57412905 935.26951766 C45.49479227 935.26888059 43.41545548 935.26825184 41.3361187 935.26763153 C40.31319738 935.26732298 39.29027607 935.26701443 38.23635714 935.26669653 C31.02442495 935.26496885 23.81250316 935.26788561 16.60057259 935.27259064 C7.83097803 935.27818689 -0.9385807 935.27670828 -9.70817112 935.26602915 C-14.18255731 935.26076022 -18.65688366 935.25873685 -23.13126945 935.26532745 C-27.22171611 935.27126191 -31.3120471 935.26805367 -35.40248317 935.25737235 C-36.88627063 935.25512803 -38.37006774 935.25629755 -39.85384905 935.26112393 C-41.86196056 935.26715797 -43.87009924 935.25980584 -45.87820339 935.25168228 C-46.99605581 935.25135758 -48.11390822 935.25103287 -49.26563495 935.25069833 C-52 935 -52 935 -55 933 C-54.17725586 932.90501221 -53.35451172 932.81002441 -52.50683594 932.7121582 C-18.94004369 928.79199983 13.83909035 923.1970814 46.09814453 912.91943359 C48.9128113 912.02762516 51.73486366 911.16338027 54.55859375 910.30078125 C72.92763281 904.56045654 90.44156943 896.81683526 108 889 C109.00530762 888.55479004 110.01061523 888.10958008 111.04638672 887.65087891 C138.51365246 875.39688608 164.83320903 859.32647478 188.80859375 841.21875 C189.47294937 840.7296817 190.13730499 840.2406134 190.8217926 839.73672485 C193.00770684 838.08997543 193.00770684 838.08997543 194.64225769 836.18367004 C200.44848594 830.30936624 206.32135813 830.21466232 214.12921429 830.1080904 C217.06321896 830.10567692 219.9958636 830.13678864 222.9296875 830.16796875 C225.0044956 830.16365103 227.07929912 830.15596382 229.15408325 830.14509583 C234.6184242 830.12420343 240.08186693 830.14315967 245.54614258 830.17236328 C254.20729313 830.21174658 262.86867321 830.19181447 271.52986717 830.17422485 C273.62750252 830.17005858 275.72514022 830.16694353 277.8227787 830.16488647 C302.24758569 830.13154733 325.94200213 828.43567998 350 824 C350.78036621 823.86400391 351.56073242 823.72800781 352.36474609 823.58789062 C388.23174032 817.25227273 424.38818767 800.63376783 452.38378906 777.33984375 C453.93661414 776.05254707 455.51090392 774.79127686 457.0859375 773.53125 C471.02202257 762.25374794 484.15622559 749.2852118 495 735 C495.77988281 734.02546875 496.55976562 733.0509375 497.36328125 732.046875 C525.10306637 697.24160344 544.30480554 653.68807548 554.42431641 610.43066406 C555.07246032 607.69405644 555.75976744 604.96867438 556.44921875 602.2421875 C562.91840643 576.40437075 567.14428381 550.45273894 569.80145264 523.97686768 C569.98538481 522.14551843 570.17435984 520.31467756 570.36376953 518.48388672 C573.83591629 483.50886442 573.66136383 446.94693155 570 412 C569.89041962 410.94017914 569.89041962 410.94017914 569.77862549 409.85894775 C566.21700895 375.70791659 560.22679663 341.82376587 550 309 C549.59297852 307.6699292 549.59297852 307.6699292 549.17773438 306.31298828 C537.06769483 267.05651761 518.14052578 228.8691942 492 197 C490.87464844 195.59814453 490.87464844 195.59814453 489.7265625 194.16796875 C478.91019801 180.89580546 466.7107283 168.28304623 453 158 C452.39736328 157.5373877 451.79472656 157.07477539 451.17382812 156.59814453 C425.35802046 136.84590339 397.17273159 122.99586354 366 114 C365.28344238 113.79149414 364.56688477 113.58298828 363.82861328 113.36816406 C354.65612271 110.72837425 345.41032147 108.58585339 336 107 C335.24335052 106.87002121 334.48670105 106.74004242 333.7071228 106.60612488 C317.92089513 104.03690212 302.29560864 103.7597394 286.33984375 103.76953125 C284.74808728 103.76865415 284.74808728 103.76865415 283.12417412 103.76775932 C273.12285342 103.76376195 263.12185713 103.78399866 253.12084961 103.8659668 C247.59868537 103.90954514 242.07761418 103.91422672 236.55533028 103.89438438 C234.472191 103.89448142 232.38899531 103.90919647 230.30607414 103.93934059 C212.12754855 104.19615806 212.12754855 104.19615806 206.36914062 99.10107422 C205.21857469 97.75712892 204.09146369 96.39237134 203 95 C201.37064738 93.6177132 201.37064738 93.6177132 199.69140625 92.48828125 C197.43329824 90.91803635 195.17751631 89.34495878 192.92578125 87.765625 C192.2910791 87.32154297 191.65637695 86.87746094 191.00244141 86.41992188 C188.89298685 84.92411748 186.81001941 83.39645454 184.73046875 81.859375 C158.52659049 62.5309145 129.57974583 46.29041997 99.8125 33.125 C99.03608154 32.78027649 98.25966309 32.43555298 97.4597168 32.0803833 C66.22088255 18.25412948 33.51042924 7.72395236 0 1 C0 0.67 0 0.34 0 0 Z " fill="#FEFEFE" transform="translate(790,547)"/>
</svg>
